<svg enable-background="new 0 0 128 128" viewBox="0 0 128 128" xmlns="http://www.w3.org/2000/svg" xmlns:xlink="http://www.w3.org/1999/xlink"><radialGradient id="a" cx="63.333" cy="124.5565" gradientTransform="matrix(1 0 0 -1 0 127.8898)" gradientUnits="userSpaceOnUse" r="120.14"><stop offset="0" stop-color="#eee"/><stop offset=".3167" stop-color="#ebebeb"/><stop offset=".5781" stop-color="#e1e1e1"/><stop offset=".819" stop-color="#cfcfcf"/><stop offset="1" stop-color="#bdbdbd"/></radialGradient><radialGradient id="b" cx="63.5722" cy="130.0381" gradientTransform="matrix(1 0 0 -1 0 127.8898)" gradientUnits="userSpaceOnUse" r="105.7601"><stop offset="0" stop-color="#616161"/><stop offset=".2204" stop-color="#5e5e5e"/><stop offset=".4074" stop-color="#535353"/><stop offset=".5821" stop-color="#424242"/><stop offset=".7485" stop-color="#292929"/><stop offset=".7941" stop-color="#212121"/><stop offset="1" stop-color="#212121"/></radialGradient><path d="m4 4h120v120h-120z" fill="url(#a)"/><path d="m4 4v24h16v60c0 2.21 1.79 4 4 4h12c2.21 0 4-1.79 4-4v-60h14v60c0 2.21 1.79 4 4 4h12c2.21 0 4-1.79 4-4v-60h14v60c0 2.21 1.79 4 4 4h12c2.21 0 4-1.79 4-4v-60h16v-24z" fill="url(#b)"/><path d="m40 28h14v56h-14z" fill="none"/><path d="m74 28h14v56h-14z" fill="none"/><path d="m4 20h120v8h-120z" fill="#424242"/><g fill="#504f4f"><path d="m28 92h4v32h-4z"/><path d="m62.06 92h4v32h-4z"/><path d="m96 92h4v32h-4z"/></g></svg>